<svg width="6" height="12" viewBox="0 0 6 12" fill="none" xmlns="http://www.w3.org/2000/svg">
<path d="M0.0390625 11.2498C0.0392376 11.0509 0.11837 10.8603 0.259063 10.7198L4.09506 6.88377C4.21117 6.76769 4.30327 6.62987 4.36611 6.4782C4.42895 6.32652 4.4613 6.16395 4.4613 5.99976C4.4613 5.83559 4.42895 5.67301 4.36611 5.52133C4.30327 5.36966 4.21117 5.23184 4.09506 5.11577L0.264062 1.28226C0.127444 1.14081 0.0518481 0.951361 0.0535569 0.754713C0.0552657 0.558066 0.134143 0.369957 0.273199 0.2309C0.412255 0.0918443 0.600364 0.0129676 0.797012 0.0112588C0.993659 0.00955001 1.18311 0.0851458 1.32456 0.221764L5.15556 4.05226C5.67068 4.5684 5.95998 5.26781 5.95998 5.99701C5.95998 6.72622 5.67068 7.42563 5.15556 7.94177L1.31956 11.7778C1.21482 11.8826 1.08138 11.954 0.936086 11.9831C0.790788 12.0121 0.640141 11.9975 0.503157 11.941C0.366172 11.8845 0.248988 11.7887 0.166392 11.6657C0.0837954 11.5427 0.0394886 11.3979 0.0390625 11.2498Z" fill="black"/>
</svg>
