<svg width="27" height="26" viewBox="0 0 27 26" fill="none" xmlns="http://www.w3.org/2000/svg">
<path d="M6.21637 3.55556H25L22.4444 12.5H7.59246M23.7222 17.6111H8.38889L5.83333 1H2M9.66667 22.7222C9.66667 23.4279 9.09458 24 8.38889 24C7.6832 24 7.11111 23.4279 7.11111 22.7222C7.11111 22.0165 7.6832 21.4444 8.38889 21.4444C9.09458 21.4444 9.66667 22.0165 9.66667 22.7222ZM23.7222 22.7222C23.7222 23.4279 23.1502 24 22.4444 24C21.7387 24 21.1667 23.4279 21.1667 22.7222C21.1667 22.0165 21.7387 21.4444 22.4444 21.4444C23.1502 21.4444 23.7222 22.0165 23.7222 22.7222Z" stroke="#EEEDF7" stroke-width="2.5" stroke-linecap="round" stroke-linejoin="round"/>
</svg>
