<svg width="17" height="17" viewBox="0 0 17 17" fill="none" xmlns="http://www.w3.org/2000/svg">
<g filter="url(#filter0_d_219_145)">
<path d="M8.49913 10.955C9.84914 10.955 10.9436 9.85908 10.9436 8.50727C10.9436 7.15544 9.84914 6.05957 8.49913 6.05957C7.1491 6.05957 6.05469 7.15544 6.05469 8.50727C6.05469 9.85908 7.1491 10.955 8.49913 10.955Z" stroke="black" stroke-width="1.08978" stroke-linecap="round" stroke-linejoin="round"/>
<path d="M3 10.955V6.05963C3 4.36985 4.36802 3 6.05556 3H10.9444C12.632 3 14 4.36985 14 6.05963V10.955C14 12.6448 12.632 14.0147 10.9444 14.0147H6.05556C4.36802 14.0147 3 12.6448 3 10.955Z" stroke="black" stroke-width="1.08978"/>
<path d="M11.8633 5.14729L11.8688 5.14111" stroke="black" stroke-width="1.08978" stroke-linecap="round" stroke-linejoin="round"/>
</g>
<defs>
<filter id="filter0_d_219_145" x="0.455078" y="0.455078" width="16.0898" height="16.1045" filterUnits="userSpaceOnUse" color-interpolation-filters="sRGB">
<feFlood flood-opacity="0" result="BackgroundImageFix"/>
<feColorMatrix in="SourceAlpha" type="matrix" values="0 0 0 0 0 0 0 0 0 0 0 0 0 0 0 0 0 0 127 0" result="hardAlpha"/>
<feOffset/>
<feGaussianBlur stdDeviation="1"/>
<feComposite in2="hardAlpha" operator="out"/>
<feColorMatrix type="matrix" values="0 0 0 0 0 0 0 0 0 0 0 0 0 0 0 0 0 0 0.25 0"/>
<feBlend mode="normal" in2="BackgroundImageFix" result="effect1_dropShadow_219_145"/>
<feBlend mode="normal" in="SourceGraphic" in2="effect1_dropShadow_219_145" result="shape"/>
</filter>
</defs>
</svg>
