<svg width="16" height="16" viewBox="0 0 16 16" fill="none" xmlns="http://www.w3.org/2000/svg">
<g clip-path="url(#clip0_272_234)">
<path d="M3.33398 2.764V0H2.00065V2.764C1.03798 3.05133 0.333984 3.94533 0.333984 5C0.333984 6.05467 1.03798 6.94867 2.00065 7.236V16H3.33398V7.236C4.29665 6.94867 5.00065 6.05467 5.00065 5C5.00065 3.94533 4.29665 3.05133 3.33398 2.764ZM8.66732 8.764V0H7.33399V8.764C6.37132 9.05133 5.66732 9.94533 5.66732 11C5.66732 12.0547 6.37132 12.9487 7.33399 13.236V16H8.66732V13.236C9.62999 12.9487 10.334 12.0547 10.334 11C10.334 9.94533 9.62999 9.05133 8.66732 8.764ZM15.6673 5C15.6673 3.94533 14.9633 3.05133 14.0007 2.764V0H12.6673V2.764C11.7047 3.05133 11.0007 3.94533 11.0007 5C11.0007 6.05467 11.7047 6.94867 12.6673 7.236V16H14.0007V7.236C14.9633 6.94867 15.6673 6.05467 15.6673 5Z" fill="black" fill-opacity="0.8"/>
</g>
<defs>
<clipPath id="clip0_272_234">
<rect width="16" height="16" fill="white"/>
</clipPath>
</defs>
</svg>
