<svg width="18" height="17" viewBox="0 0 18 17" fill="none" xmlns="http://www.w3.org/2000/svg">
<path d="M13.9053 16.2021C13.29 16.6345 9.34164 13.8941 8.58544 13.888C7.82924 13.8821 3.83645 16.5594 3.22828 16.1174C2.62011 15.6754 4.04988 11.1353 3.82203 10.4261C3.59418 9.71695 -0.228674 6.80941 0.0107918 6.10393C0.250311 5.39845 5.0823 5.33292 5.69764 4.90061C6.31299 4.46835 7.94317 -0.00596519 8.69942 5.97112e-06C9.45556 0.00602905 11.0121 4.50563 11.6203 4.94766C12.2284 5.38963 17.0588 5.53189 17.2867 6.24106C17.5145 6.95022 13.6445 9.7967 13.405 10.5022C13.1655 11.2077 14.5207 15.7698 13.9053 16.2021Z" fill="#C05459"/>
</svg>
