<svg width="14" height="12" viewBox="0 0 14 12" fill="none" xmlns="http://www.w3.org/2000/svg">
<g filter="url(#filter0_d_219_120)">
<mask id="path-1-inside-1_219_120" fill="white">
<path d="M13 1.00547C13 1.00547 11.8993 1.65322 11.2873 1.83681C10.9587 1.46054 10.5222 1.19385 10.0365 1.0728C9.55093 0.95176 9.03973 0.982204 8.57205 1.16003C8.10438 1.33785 7.70276 1.65446 7.42164 2.06704C7.14045 2.47963 6.99329 2.96828 7 3.46691V4.01028C6.04142 4.03503 5.0916 3.82326 4.2351 3.3938C3.37859 2.96434 2.64199 2.33053 2.09091 1.54883C2.09091 1.54883 -0.0909092 6.43914 4.81818 8.6126C3.69483 9.37217 2.35663 9.75307 1 9.69933C5.90909 12.4162 11.9091 9.69933 11.9091 3.45061C11.9086 3.29926 11.894 3.14828 11.8655 2.99962C12.4221 2.45271 13 1.00547 13 1.00547Z"/>
</mask>
<path d="M13 1.00547L20.4297 3.97197C21.6981 0.795176 20.8064 -2.83659 18.2109 -5.06467C15.6154 -7.29276 11.8905 -7.62413 8.94246 -5.88919L13 1.00547ZM11.2873 1.83681L5.261 7.09838C7.32486 9.4622 10.5801 10.4011 13.5858 9.49949L11.2873 1.83681ZM10.0365 1.0728L11.9714 -6.68969L11.9713 -6.68971L10.0365 1.0728ZM7.42164 2.06704L14.0324 6.57233L14.0328 6.57178L7.42164 2.06704ZM7 3.46691H15C15 3.43103 14.9998 3.39516 14.9993 3.35928L7 3.46691ZM7 4.01028L7.20653 12.0076C11.5429 11.8956 15 8.3481 15 4.01028L7 4.01028ZM4.2351 3.3938L7.82086 -3.75759L7.82085 -3.7576L4.2351 3.3938ZM2.09091 1.54883L8.62943 -3.06069C6.9715 -5.41244 4.17831 -6.69266 1.31449 -6.4134C-1.54934 -6.13414 -4.04258 -4.33843 -5.21495 -1.71069L2.09091 1.54883ZM4.81818 8.6126L9.29928 15.2398C11.7094 13.6101 13.0448 10.8005 12.7866 7.90254C12.5284 5.00461 10.7172 2.47534 8.05689 1.2975L4.81818 8.6126ZM1 9.69933L1.31665 1.7056C-2.38733 1.55888 -5.70696 3.9759 -6.70474 7.54597C-7.70252 11.116 -6.11708 14.904 -2.87376 16.6989L1 9.69933ZM11.9091 3.45061H19.9091C19.9091 3.44196 19.9091 3.43331 19.909 3.42466L11.9091 3.45061ZM11.8655 2.99962L6.25899 -2.70719C4.34875 -0.83053 3.50414 1.87742 4.00881 4.50728L11.8655 2.99962ZM13 1.00547C8.94246 -5.88919 8.94285 -5.88943 8.94325 -5.88966C8.94337 -5.88973 8.94376 -5.88996 8.94402 -5.89011C8.94452 -5.89041 8.94501 -5.8907 8.94548 -5.89098C8.94643 -5.89153 8.94732 -5.89206 8.94815 -5.89254C8.94981 -5.89352 8.95124 -5.89436 8.95244 -5.89506C8.95483 -5.89646 8.95631 -5.89732 8.95693 -5.89768C8.95815 -5.8984 8.956 -5.89714 8.95082 -5.89415C8.94031 -5.88808 8.91855 -5.87557 8.88826 -5.85849C8.82484 -5.82272 8.7394 -5.77553 8.65041 -5.72875C8.28006 -5.53404 8.46999 -5.67026 8.9887 -5.82586L13.5858 9.49949C14.7166 9.16029 15.7629 8.6084 16.0959 8.43333C16.3586 8.29523 16.5866 8.16901 16.7487 8.07758C16.8311 8.03107 16.9001 7.99153 16.9522 7.96146C16.9783 7.94638 17.0004 7.93354 17.0181 7.92325C17.0269 7.9181 17.0346 7.91358 17.0412 7.90972C17.0445 7.90778 17.0475 7.90602 17.0502 7.90442C17.0516 7.90362 17.0529 7.90286 17.0541 7.90214C17.0547 7.90179 17.0553 7.90144 17.0559 7.9011C17.0562 7.90093 17.0566 7.90069 17.0567 7.90061C17.0571 7.90036 17.0575 7.90013 13 1.00547ZM17.3135 -3.42475C15.9068 -5.03589 14.0413 -6.17376 11.9714 -6.68969L8.10166 8.83529C7.00306 8.56145 6.01064 7.95697 5.261 7.09838L17.3135 -3.42475ZM11.9713 -6.68971C9.90182 -7.20554 7.72328 -7.07602 5.72883 -6.31768L11.4153 8.63773C10.3562 9.04043 9.20003 9.10906 8.10174 8.83531L11.9713 -6.68971ZM5.72883 -6.31768C3.73448 -5.55937 2.0161 -4.20705 0.810481 -2.43769L14.0328 6.57178C13.3894 7.51598 12.4743 8.23507 11.4153 8.63773L5.72883 -6.31768ZM0.81086 -2.43825C-0.395042 -0.668782 -1.02813 1.43022 -0.999276 3.57454L14.9993 3.35928C15.0147 4.50634 14.676 5.62805 14.0324 6.57233L0.81086 -2.43825ZM-1 3.46691V4.01028H15V3.46691H-1ZM6.79347 -3.98706C7.1482 -3.99622 7.50102 -3.91796 7.82086 -3.75759L0.649328 10.5452C2.68219 11.5645 4.93463 12.0663 7.20653 12.0076L6.79347 -3.98706ZM7.82085 -3.7576C8.14082 -3.59716 8.41935 -3.35869 8.62943 -3.06069L-4.44761 6.15836C-3.13537 8.01975 -1.38365 9.52583 0.649346 10.5452L7.82085 -3.7576ZM2.09091 1.54883C-5.21495 -1.71069 -5.21655 -1.70708 -5.21817 -1.70346C-5.21872 -1.70223 -5.22034 -1.69857 -5.22144 -1.69609C-5.22364 -1.69114 -5.22588 -1.68608 -5.22815 -1.68093C-5.2327 -1.67063 -5.23739 -1.65995 -5.24221 -1.6489C-5.25187 -1.62679 -5.26208 -1.60316 -5.27281 -1.57804C-5.29424 -1.52782 -5.31779 -1.47151 -5.34305 -1.40938C-5.39349 -1.28534 -5.45133 -1.1368 -5.51331 -0.966025C-5.63634 -0.627047 -5.78088 -0.186162 -5.9166 0.336632C-6.17835 1.34485 -6.45909 2.85423 -6.37805 4.63032C-6.29537 6.44228 -5.82447 8.69088 -4.43009 10.8841C-3.00419 13.1269 -0.923748 14.8194 1.57948 15.9277L8.05689 1.2975C8.05473 1.29654 8.19868 1.36071 8.4124 1.53877C8.6314 1.72123 8.86602 1.97561 9.07214 2.29983C9.49492 2.96482 9.59082 3.58332 9.60532 3.90102C9.61818 4.18285 9.57608 4.33381 9.57001 4.35717C9.56213 4.38754 9.54969 4.42939 9.52681 4.49244C9.5149 4.52525 9.49914 4.5666 9.47826 4.61794C9.46778 4.64372 9.45589 4.67231 9.44241 4.70389C9.43566 4.71969 9.4285 4.73628 9.42091 4.75367C9.41711 4.76236 9.4132 4.77127 9.40918 4.78038C9.40717 4.78493 9.40513 4.78954 9.40306 4.7942C9.40203 4.79653 9.40045 4.80007 9.39994 4.80124C9.39836 4.80478 9.39677 4.80835 2.09091 1.54883ZM0.337087 1.9854C0.628212 1.78855 0.971377 1.69193 1.31665 1.7056L0.683353 17.6931C3.74189 17.8142 6.76146 16.9558 9.29928 15.2398L0.337087 1.9854ZM-2.87376 16.6989C1.78783 19.2788 7.38475 19.4749 12.043 17.005C16.8999 14.4298 19.9091 9.39007 19.9091 3.45061H3.90909C3.90909 3.7072 3.85644 3.63304 3.99238 3.40103C4.12446 3.17559 4.32937 2.98498 4.54789 2.86912C4.97888 2.64059 5.12126 2.83674 4.87376 2.69976L-2.87376 16.6989ZM19.909 3.42466C19.9069 2.77544 19.8442 2.12842 19.7221 1.49195L4.00881 4.50728C3.94372 4.16814 3.91026 3.82307 3.90913 3.47656L19.909 3.42466ZM17.4719 8.70642C18.8148 7.3871 19.6064 5.75806 19.8038 5.36134C19.986 4.99512 20.1331 4.66958 20.2345 4.43704C20.2863 4.31812 20.3291 4.21678 20.3617 4.13853C20.378 4.09925 20.3919 4.06534 20.4032 4.03747C20.4089 4.02352 20.414 4.01104 20.4184 4.0001C20.4206 3.99464 20.4226 3.98955 20.4245 3.98486C20.4254 3.98251 20.4263 3.98027 20.4272 3.97812C20.4276 3.97704 20.4281 3.97599 20.4285 3.97497C20.4287 3.97445 20.429 3.9737 20.4291 3.97345C20.4294 3.9727 20.4297 3.97197 13 1.00547C5.57034 -1.96103 5.57063 -1.96176 5.57092 -1.96248C5.57101 -1.96272 5.5713 -1.96343 5.57148 -1.9639C5.57186 -1.96484 5.57223 -1.96576 5.57259 -1.96666C5.57331 -1.96845 5.574 -1.97018 5.57466 -1.97183C5.57598 -1.97512 5.57719 -1.97812 5.57828 -1.98084C5.58046 -1.98626 5.5822 -1.99055 5.58351 -1.99376C5.58612 -2.00017 5.58707 -2.00245 5.58651 -2.00109C5.58525 -1.99806 5.57857 -1.98205 5.56754 -1.95675C5.54316 -1.90084 5.511 -1.83039 5.47917 -1.76643C5.44105 -1.68981 5.44132 -1.69879 5.48773 -1.77329C5.48919 -1.77563 5.73871 -2.19605 6.25899 -2.70719L17.4719 8.70642Z" fill="black" mask="url(#path-1-inside-1_219_120)"/>
</g>
<defs>
<filter id="filter0_d_219_120" x="0.5" y="0.5" width="13" height="10.75" filterUnits="userSpaceOnUse" color-interpolation-filters="sRGB">
<feFlood flood-opacity="0" result="BackgroundImageFix"/>
<feColorMatrix in="SourceAlpha" type="matrix" values="0 0 0 0 0 0 0 0 0 0 0 0 0 0 0 0 0 0 127 0" result="hardAlpha"/>
<feOffset/>
<feGaussianBlur stdDeviation="0.25"/>
<feComposite in2="hardAlpha" operator="out"/>
<feColorMatrix type="matrix" values="0 0 0 0 0 0 0 0 0 0 0 0 0 0 0 0 0 0 1 0"/>
<feBlend mode="normal" in2="BackgroundImageFix" result="effect1_dropShadow_219_120"/>
<feBlend mode="normal" in="SourceGraphic" in2="effect1_dropShadow_219_120" result="shape"/>
</filter>
</defs>
</svg>
