<svg width="30" height="27" viewBox="0 0 30 27" fill="none" xmlns="http://www.w3.org/2000/svg">
<path fill-rule="evenodd" clip-rule="evenodd" d="M11.25 6.16732C11.25 4.25227 12.881 2.61475 15 2.61475C17.119 2.61475 18.75 4.25228 18.75 6.16732C18.75 8.08236 17.119 9.71989 15 9.71989C12.881 9.71989 11.25 8.08237 11.25 6.16732ZM15 0.114746C11.5962 0.114746 8.75 2.77759 8.75 6.16732C8.75 9.55705 11.5962 12.2199 15 12.2199C18.4038 12.2199 21.25 9.55706 21.25 6.16732C21.25 2.77758 18.4038 0.114746 15 0.114746ZM15 13.3216C9.5251 13.3216 5 17.5971 5 22.9761C5 23.6665 5.55964 24.2261 6.25 24.2261H23.75C24.4404 24.2261 25 23.6665 25 22.9761C25 17.5971 20.4749 13.3216 15 13.3216ZM15 15.8216C18.7334 15.8216 21.768 18.4019 22.3852 21.7261H7.61482C8.232 18.4019 11.2666 15.8216 15 15.8216Z" fill="#EEEDF7"/>
</svg>
