<svg width="17" height="17" viewBox="0 0 17 17" fill="none" xmlns="http://www.w3.org/2000/svg">
<path d="M10.7395 6.2605C10.8601 7.07161 11.1788 7.84112 11.6671 8.49998C11.1788 9.15888 10.8601 9.9284 10.7395 10.7395C9.9284 10.8601 9.15888 11.1788 8.49998 11.6671C7.84112 11.1788 7.07161 10.8601 6.2605 10.7395C6.13987 9.92839 5.82117 9.15887 5.33288 8.49998C5.82113 7.84112 6.13987 7.07162 6.2605 6.2605C7.07162 6.13987 7.84112 5.82113 8.49998 5.33288C9.15887 5.82117 9.92839 6.13987 10.7395 6.2605ZM6.25647 4.16065C6.25648 4.16091 6.2565 4.16118 6.25651 4.16145L6.25647 4.16065ZM5.39095 4.20108L5.39095 4.20109L5.39095 4.20108L5.45581 2.81318L5.39095 4.20108ZM4.32402 2.76074L4.32404 2.76029L4.32402 2.76074ZM6.25647 12.8394L6.25647 12.8394C6.25647 12.8394 6.25647 12.8394 6.25647 12.8394ZM7.01805 13.1547C7.01831 13.1544 7.01856 13.1542 7.01882 13.1539L7.01805 13.1547ZM13.1547 9.98193C13.1545 9.98176 13.1544 9.98159 13.1542 9.98142L13.1547 9.98193Z" stroke="#9DC913" stroke-width="7"/>
<path d="M7.39425 1.48856C7.98753 0.837147 9.01244 0.837147 9.60573 1.48856L10.3686 2.32625C10.6684 2.65547 11.0993 2.83397 11.5442 2.81318L12.676 2.76029C13.556 2.71915 14.2809 3.44392 14.2397 4.32404L14.1868 5.45581C14.166 5.90061 14.3445 6.33154 14.6737 6.63137L15.5114 7.39425C16.1629 7.98753 16.1629 9.01244 15.5114 9.60573L14.6737 10.3686C14.3445 10.6684 14.166 11.0993 14.1868 11.5442L14.2397 12.676C14.2809 13.556 13.556 14.2809 12.676 14.2397L11.5442 14.1868C11.0993 14.166 10.6684 14.3445 10.3686 14.6737L9.60573 15.5114C9.01244 16.1629 7.98753 16.1629 7.39425 15.5114L6.63137 14.6737C6.33154 14.3445 5.90061 14.166 5.45581 14.1868L4.32403 14.2397C3.44392 14.2809 2.71915 13.556 2.76029 12.676L2.81318 11.5442C2.83397 11.0993 2.65547 10.6684 2.32625 10.3686L1.48856 9.60573C0.837147 9.01244 0.837147 7.98753 1.48856 7.39425L2.32625 6.63137C2.65547 6.33154 2.83397 5.90061 2.81318 5.45581L2.76029 4.32403C2.71915 3.44392 3.44392 2.71915 4.32404 2.76029L5.45581 2.81318C5.90061 2.83397 6.33154 2.65547 6.63137 2.32625L7.39425 1.48856Z" stroke="black"/>
<path d="M6 8.5L7.66667 10L11 7" stroke="black" stroke-linecap="round" stroke-linejoin="round"/>
</svg>
