<svg width="26" height="23" viewBox="0 0 26 14" fill="none" xmlns="http://www.w3.org/2000/svg">
<g filter="url(#filter0_d_228_83)">
<path d="M4 1.00133C4 0.735763 4.10536 0.48107 4.29289 0.293284C4.48043 0.105498 4.73478 0 5 0H21C21.2652 0 21.5196 0.105498 21.7071 0.293284C21.8946 0.48107 22 0.735763 22 1.00133C22 1.2669 21.8946 1.5216 21.7071 1.70938C21.5196 1.89717 21.2652 2.00267 21 2.00267H5C4.73478 2.00267 4.48043 1.89717 4.29289 1.70938C4.10536 1.5216 4 1.2669 4 1.00133ZM4 7.00933C4 6.74376 4.10536 6.48907 4.29289 6.30128C4.48043 6.1135 4.73478 6.008 5 6.008H21C21.2652 6.008 21.5196 6.1135 21.7071 6.30128C21.8946 6.48907 22 6.74376 22 7.00933C22 7.2749 21.8946 7.5296 21.7071 7.71738C21.5196 7.90517 21.2652 8.01067 21 8.01067H5C4.73478 8.01067 4.48043 7.90517 4.29289 7.71738C4.10536 7.5296 4 7.2749 4 7.00933ZM5 12.016C4.73478 12.016 4.48043 12.1215 4.29289 12.3093C4.10536 12.4971 4 12.7518 4 13.0173C4 13.2829 4.10536 13.5376 4.29289 13.7254C4.48043 13.9132 4.73478 14.0187 5 14.0187H21C21.2652 14.0187 21.5196 13.9132 21.7071 13.7254C21.8946 13.5376 22 13.2829 22 13.0173C22 12.7518 21.8946 12.4971 21.7071 12.3093C21.5196 12.1215 21.2652 12.016 21 12.016H5Z" fill="#EEEDF7"/>
</g>
<defs>
<filter id="filter0_d_228_83" x="0" y="0" width="26" height="23" filterUnits="userSpaceOnUse" color-interpolation-filters="sRGB">
<feFlood flood-opacity="0" result="BackgroundImageFix"/>
<feColorMatrix in="SourceAlpha" type="matrix" values="0 0 0 0 0 0 0 0 0 0 0 0 0 0 0 0 0 0 127 0" result="hardAlpha"/>
<feOffset dy="4"/>
<feGaussianBlur stdDeviation="2"/>
<feComposite in2="hardAlpha" operator="out"/>
<feColorMatrix type="matrix" values="0 0 0 0 0 0 0 0 0 0 0 0 0 0 0 0 0 0 0.25 0"/>
<feBlend mode="normal" in2="BackgroundImageFix" result="effect1_dropShadow_228_83"/>
<feBlend mode="normal" in="SourceGraphic" in2="effect1_dropShadow_228_83" result="shape"/>
</filter>
</defs>
</svg>
